Poster: 
http://imgh.us/Ted-2012-Movie-Poster.jpg

Info:

Format : MPEG-4
Format profile : Base Media
Codec ID : isom
File size : 850 MiB
Duration : 1h 39mn
Overall bit rate mode : Variable
Overall bit rate : 1 190 Kbps
Encoded date : UTC 2012-07-11 06:22:52
Tagged date : UTC 2012-07-11 06:22:52

Video
ID : 1
Format : AVC
Format/Info : Advanced Video Codec
Format profile : High@L4.1
Format settings, CABAC : Yes
Format settings, ReFrames : 3 frames
Codec ID : avc1
Codec ID/Info : Advanced Video Coding
Duration : 1h 39mn
Bit rate mode : Variable
Bit rate : 1 059 Kbps
Maximum bit rate : 40.0 Mbps
Width : 352 pixels
Height : 240 pixels
Display aspect ratio : 3:2
Frame rate mode : Constant
Frame rate : 29.970 fps
Standard : NTSC
Color space : YUV
Chroma subsampling : 4:2:0
Bit depth : 8 bits
Scan type : Progressive
Bits/(Pixel*Frame) : 0.418
Stream size : 757 MiB (89%)
Writing library : x264 core 125 r2200 999b753
Encoded date : UTC 2012-07-11 02:47:33
Tagged date : UTC 2012-07-11 06:24:08

Audio
ID : 2
Format : MPEG Audio
Format version : Version 1
Format profile : Layer 3
Mode : Joint stereo
Mode extension : MS Stereo
Codec ID : 6B
Duration : 1h 39mn
Bit rate mode : Constant
Bit rate : 128 Kbps
Maximum bit rate : 132 Kbps
Channel(s) : 2 channels
Sampling rate : 48.0 KHz
Compression mode : Lossy
Delay relative to video : -3s 337ms
Stream size : 91.4 MiB (11%)
Writing library : LAME3.99r
Encoding settings : -m j -V 4 -q 2 -lowpass 17 -b 128
Encoded date : UTC 2012-07-11 06:23:55
Tagged date : UTC 2012-07-11 06:24:08

SCREENS:
 
http://imgh.us/TED_2012_FULLCAM_x264_-_KiNGDOM-001.jpg 
http://imgh.us/TED_2012_FULLCAM_x264_-_KiNGDOM-006.jpg 
http://imgh.us/TED_2012_FULLCAM_x264_-_KiNGDOM-010.jpg 
http://imgh.us/TED_2012_FULLCAM_x264_-_KiNGDOM-011.jpg 
http://imgh.us/TED_2012_FULLCAM_x264_-_KiNGDOM-018.jpg 
http://imgh.us/TED_2012_FULLCAM_x264_-_KiNGDOM-013.jpg 
http://imgh.us/TED_2012_FULLCAM_x264_-_KiNGDOM-020.jpg